<svg width="783" height="1000" viewBox="0 0 783 1000" fill="none" xmlns="http://www.w3.org/2000/svg">
<path d="M56.1507 457.134C37.518 409.432 3.22432 324.943 81.6481 237.184C305.005 -12.7586 662.937 171.318 723.005 318.166C783.073 465.013 774 700.078 529.813 820.551C369.257 899.763 189.522 908.53 98.8098 865.041C17.7537 826.18 -6.12171 741.069 37.518 655.589C69.5494 592.846 78.8721 515.303 56.1507 457.134Z" fill="url(#paint0_linear)"/>
<path d="M53.5762 370.263C44.2586 341.824 8.73524 336.6 0 358.655L22.7116 455H216.634C218.963 455 227.585 452.913 228.863 445.714C231.193 424.239 203.24 414.953 182.275 424.239C183.44 398.122 160.729 387.675 135.105 396.961C132.776 373.165 105.405 370.263 90.8465 382.451C96.0877 349.949 59.982 344.726 53.5762 370.263Z" fill="white" fill-opacity="0.7"/>
<path d="M523.144 110.588C531.119 86.2856 561.524 81.8219 569 100.669L549.561 183H383.584C381.59 183 374.211 181.216 373.117 175.064C371.123 156.714 395.048 148.778 412.991 156.714C411.994 134.395 431.433 125.467 453.364 133.403C455.358 113.068 478.784 110.588 491.245 121.004C486.759 93.2293 517.662 88.7656 523.144 110.588Z" fill="white" fill-opacity="0.7"/>
<path d="M457.799 274L407.437 453.115C404.415 460.921 418.013 462.564 419.523 455.58C419.859 454.348 463.036 282.463 463.842 278.519C464.648 274.575 462.331 274 457.799 274Z" fill="#949393"/>
<path d="M478.5 456L188 540L436 636L626 487.5L478.5 456Z" fill="url(#paint1_linear)"/>
<path d="M436 732V636L188 540V609L436 732Z" fill="url(#paint2_linear)"/>
<path d="M626 487.5L436 636V732L626 533.5V487.5Z" fill="url(#paint3_linear)"/>
<path d="M448.958 406.936L421.764 435.073L407.381 430.837C394.627 427.657 383.397 434.263 385.397 447.598L390.119 471.727C391.668 476.965 394.281 480.624 399.746 483.296L417.097 492.236C421.651 494.495 427.347 492.748 429.826 491.749C435.482 489.467 440.962 482.749 440.138 473.845L438.914 453.604L460.008 417.514C462.337 412.482 460.117 409.121 457.158 407.857C454.986 406.929 450.909 405.13 448.958 406.936Z" fill="#CD3B07"/>
<path fill-rule="evenodd" clip-rule="evenodd" d="M425.983 436.421L450.953 408.631C454.41 405.086 464.046 408.79 460.008 417.514L438.914 453.604L440.138 473.845C441.323 486.651 429.468 494.935 422.805 492.002L404.207 482.486C398.742 479.813 396.847 477.546 395.298 472.309L390.431 449.474C388.431 436.139 397.168 428.38 407.381 430.837L425.983 436.421ZM426.697 441.745L451.812 412.661C454.789 409.499 458.814 412.573 456.652 416.263L434.695 452.257L436.496 471.251C437.681 484.057 428.274 489.994 421.611 487.061L407.567 479.804C402.102 477.131 400.638 474.913 399.089 469.675L394.795 449.527C393.703 439.79 398.842 432.938 409.055 435.395L426.697 441.745Z" fill="#F86531"/>
<path d="M491.5 428.5L435 439.5L487.5 454.5L527.5 437.5L491.5 428.5Z" fill="#C4C4C4"/>
<path d="M487.5 454.5L435 439.5L402.5 507.5L486.5 536L487.5 454.5Z" fill="#949393"/>
<path d="M555.5 490L486.5 536L487.5 454.5L527.5 437.5L555.5 490Z" fill="#C4C4C4"/>
<path d="M483.5 412.5L464 408.5L453.5 440.5L483.5 448.5V412.5Z" fill="#949393"/>
<path d="M483.5 404L464 408.5L483.5 412.5L502 408L483.5 404Z" fill="#DDDDDD"/>
<path d="M501.5 408L483.5 412.5V449L511.5 437L501.5 408Z" fill="#C4C4C4"/>
<path d="M520.278 415.227L492.778 450.91L475.778 447.91C460.778 445.91 448.778 454.91 452.778 469.91L461.278 496.91C463.722 502.703 467.182 506.554 473.778 508.91L494.778 516.91C500.278 518.91 506.57 516.18 509.278 514.718C515.456 511.382 520.864 502.992 518.778 492.91L514.778 469.91L534.278 425.91C536.296 419.854 533.326 416.293 529.778 415.227C527.174 414.444 522.278 412.91 520.278 415.227Z" fill="#CD3B07"/>
<path fill-rule="evenodd" clip-rule="evenodd" d="M497.778 451.91L522.778 416.91C526.278 412.409 537.778 415.41 534.278 425.91L514.778 469.91L518.778 492.91C521.778 507.41 509.278 518.41 501.278 515.91L478.778 507.41C472.182 505.054 469.722 502.703 467.278 496.91L458.778 471.41C454.778 456.41 463.778 446.41 475.778 447.91L497.778 451.91ZM499.278 457.909L524.278 421.41C527.278 417.41 532.278 420.41 530.278 424.91L509.778 468.91L514.278 490.41C517.278 504.91 507.278 512.91 499.278 510.41L482.278 503.91C475.682 501.554 473.722 499.203 471.278 493.41L463.778 470.91C461.278 459.91 466.278 451.41 478.278 452.91L499.278 457.909Z" fill="#F86531"/>
<path d="M457.5 274.5L454.5 285C484.761 286.777 501.73 287.084 532 286C532.333 284.5 533.2 280.3 534 275.5C534.8 270.7 532.5 270 528 270H516C516.5 262 517 257 517 251C517 247 513.929 246.5 511 246.5C505 246.5 503 246.5 495.5 247C493.006 247.166 492.5 249 492 251C491.5 253 487.5 271.5 487.5 271.5C480 271.667 464.3 272 461.5 272C458.7 272 457.667 273.667 457.5 274.5Z" fill="#C4C4C4"/>
<path d="M528 270L478 488C475 497.5 488.5 499.5 490 491C490.333 489.5 533.2 280.3 534 275.5C534.8 270.7 532.5 270 528 270Z" fill="#949393"/>
<path d="M511 246.5C511 252.5 510.5 261 510 270L516 270C516.5 262 517 257 517 251C517 247 513.929 246.5 511 246.5Z" fill="#949393"/>
<path d="M371 249C371 254.242 369.043 262.082 366 265C362 265 361.308 265 358.5 265C351.596 265 346 257.837 346 249C346 240.163 351.596 233 358.5 233C361.22 233 363.5 233 366 233C369.156 235.904 371 243.645 371 249Z" fill="url(#paint4_linear)"/>
<path d="M378 249C378 257.837 372.404 265 365.5 265C358.596 265 353 257.837 353 249C353 240.163 358.596 233 365.5 233C372.404 233 378 240.163 378 249Z" fill="#007D50"/>
<path d="M509.5 226L207 167V243.5L452.5 260.5H506.5L509.5 226Z" fill="url(#paint5_linear)"/>
<path fill-rule="evenodd" clip-rule="evenodd" d="M207 167L509.5 226L506.5 260.5L207 234.5V167ZM222 180L361 205V237.5L222 224V180ZM397 211.5V241L498.5 252L500.5 230.5L397 211.5Z" fill="url(#paint6_linear)"/>
<path fill-rule="evenodd" clip-rule="evenodd" d="M68.5977 58H73.0977L191.098 167L194.598 235L124.098 371.5H117.598C9.09767 316.5 12.0977 145 68.5977 58ZM147.571 155.5L76.0714 98C63.0422 121.819 58.6449 138.281 53.0714 167.5L143.571 184L147.571 155.5ZM143.571 196L53.0714 189C52.6333 225.282 53.8893 246.224 66.0714 276.5L147.571 222L143.571 196ZM78.0714 299L148.571 240.5L155.071 260L117.071 332C100.615 325.302 91.0392 315.365 78.0714 299Z" fill="url(#paint7_linear)"/>
<path fill-rule="evenodd" clip-rule="evenodd" d="M124.644 371.5C9.87767 312 19.8573 141 73.7474 58L191.507 167L195 235L124.644 371.5ZM151.123 156L79.2698 97C66.2672 120.819 62.3778 135.781 56.8156 165L148.129 183L151.123 156ZM148.129 200L55.3187 193.5C54.8814 229.782 58.6298 248.224 70.7871 278.5L151.123 223.5L148.129 200ZM85.2576 301L153.119 241.5L158.608 261.5L122.681 331C106.259 324.302 98.199 317.365 85.2576 301Z" fill="url(#paint8_linear)"/>
<path d="M140 740C140 745.523 118.062 750 91 750C77.0303 750 61.926 749.43 53 747C44.6346 744.723 42 740.672 42 738C42 732.477 63.938 730 91 730C118.062 730 140 734.477 140 740Z" fill="black" fill-opacity="0.1"/>
<path d="M79 707.286C79 710.501 79 723.714 79 737.286C79 748 64.3116 748 60.5 748C56.6884 748 42 745.857 42 737.286C42 727.286 42 710.501 42 707.286C42 702.157 50.2827 698 60.5 698C70.7173 698 79 702.157 79 707.286Z" fill="url(#paint9_linear)"/>
<ellipse cx="60.5" cy="707" rx="18.5" ry="9" fill="#E35C2E"/>
<path d="M73 683.5C73 685.751 73 695 73 704.5C73 712 62.6784 712 60 712C57.3216 712 47 710.5 47 704.5C47 697.5 47 685.751 47 683.5C47 679.91 52.8203 677 60 677C67.1797 677 73 679.91 73 683.5Z" fill="url(#paint10_linear)"/>
<ellipse cx="60" cy="683.5" rx="13" ry="6.5" fill="#E35C2E"/>
<rect x="58" y="491" width="3" height="192" rx="1.5" fill="#492B2B"/>
<rect x="58" y="491" width="3" height="192" rx="1.5" fill="#492B2B"/>
<rect x="48" y="202" width="3" height="257" fill="#492B2B"/>
<rect x="48" y="202" width="3" height="257" fill="#492B2B"/>
<rect x="45" y="440" width="28" height="59" rx="11" fill="#441A1A"/>
<rect x="64" y="202" width="3" height="257" fill="#492B2B"/>
<rect x="64" y="202" width="3" height="257" fill="#492B2B"/>
<rect x="45" y="440" width="22" height="59" rx="11" fill="#7D2A2A"/>
<path fill-rule="evenodd" clip-rule="evenodd" d="M86.5977 58H91.0977L209.098 167L212.598 235L142.098 371.5H135.598C27.0977 316.5 30.0977 145 86.5977 58ZM165.571 155.5L94.0714 98C81.0422 121.819 76.6449 138.281 71.0714 167.5L161.571 184L165.571 155.5ZM161.571 196L71.0714 189C70.6333 225.282 71.8893 246.224 84.0714 276.5L165.571 222L161.571 196ZM96.0714 299L166.571 240.5L173.071 260L135.071 332C118.615 325.302 109.039 315.365 96.0714 299Z" fill="url(#paint11_linear)"/>
<path fill-rule="evenodd" clip-rule="evenodd" d="M142.644 371.5C27.8777 312 37.8573 141 91.7474 58L209.507 167L213 235L142.644 371.5ZM169.123 156L97.2698 97C84.2672 120.819 80.3778 135.781 74.8156 165L166.129 183L169.123 156ZM166.129 200L73.3187 193.5C72.8814 229.782 76.6298 248.224 88.7871 278.5L169.123 223.5L166.129 200ZM103.258 301L171.119 241.5L176.608 261.5L140.681 331C124.259 324.302 116.199 317.365 103.258 301Z" fill="url(#paint12_linear)"/>
<path fill-rule="evenodd" clip-rule="evenodd" d="M331.5 277L373 277.5L383 587L295.5 551.5L331.5 277ZM338 282.5L350.5 291.5L335.5 299.5L338 282.5ZM345 283H364L353.5 289.5L345 283ZM368 284.5L357 291.5L368 300.5V284.5ZM342.5 300L353.5 293.5L365 302L342.5 300ZM365 307.5L339 306L350.5 323L365 307.5ZM334.5 305.5L348 325.5L329 345.5L334.5 305.5ZM368.5 308L352 325.5L370 351.5L368.5 308ZM350 328L330 349.5L368.5 355.5L350 328ZM368 361.5L349 375.5L332 355.5L368 361.5ZM346 377.5L327.5 355.5L322.5 394L346 377.5ZM370.5 363.5L350.5 378L371.5 402L370.5 363.5ZM348 380L368 403.5L325 396.5L348 380ZM325 402.5L367.5 409.5L345 427L325 402.5ZM371.5 410.5L347 429.5L373 462L371.5 410.5ZM342 429L321.5 403L315.5 449.5L342 429ZM344.5 431.5L369.5 463L319.5 451.5L344.5 431.5ZM370 469L320.5 458L342.5 482L370 469ZM314 456.5L339.5 483.5L309.5 497.5L314 456.5ZM373.5 471L345.5 484.5L375 516L373.5 471ZM342 486L315 499L369 514.5L342 486ZM369 520.5L315.5 504.5L339.5 532L369 520.5ZM308.5 503L335 533L302.5 546L308.5 503ZM375 522L341.5 535L376.5 575L375 522ZM337.5 536L374 577L305.5 549L337.5 536Z" fill="url(#paint13_linear)"/>
<path fill-rule="evenodd" clip-rule="evenodd" d="M373 277.5L410.5 276L445.5 545L383 587L373 277.5ZM405 281L395 290L407.5 298L405 281ZM385 283L398.5 282L392 287.5L385 283ZM379 283.5L389 290L380 298L379 283.5ZM380 302.5L392 292L405 300L380 302.5ZM407.5 306.5L380 308.5L395 324.5L407.5 306.5ZM380 316L393 328.5L381.5 347L380 316ZM409 310L398 328L413.5 344L409 310ZM396 332L381.5 356L413.5 350L396 332ZM413.5 356L381.5 362.5L399.5 376L413.5 356ZM402.5 378.5L415.5 359L419.5 391.5L402.5 378.5ZM381.5 367L397 379L382.5 400L381.5 367ZM400.5 381.5L419.5 396.5L382.5 406L400.5 381.5ZM420.5 401L382.5 410L404.5 426L420.5 401ZM383.5 415.5L401.5 429.5L385 457L383.5 415.5ZM421.5 406L407 428.5L426.5 444L421.5 406ZM385 463.5L405 432L426 448.5L385 463.5ZM426 454.5L386.5 468.5L408.5 477L426 454.5ZM412.5 478L428 457.5L431.5 485.5L412.5 478ZM406 480L385 472.5L386.5 507L406 480ZM410.5 482L386.5 513.5L432.5 492.5L410.5 482ZM415.5 530L433.5 499L439 539.5L415.5 530ZM413.5 533.5L437.5 543.5L390 575.5L413.5 533.5ZM426.5 501.5L412.5 527.5L390 518.5L426.5 501.5ZM388 571L386.5 521L410.5 531L388 571Z" fill="#007D50"/>
<path d="M373 265H322V277L373 277.5V265Z" fill="url(#paint14_linear)"/>
<path d="M420.5 265H373V277.5L420.5 276V265Z" fill="url(#paint15_linear)"/>
<path d="M396 249C396 254.242 394.043 262.082 391 265C387 265 386.308 265 383.5 265C376.596 265 371 257.837 371 249C371 240.163 376.596 233 383.5 233C386.22 233 388.5 233 391 233C394.156 235.904 396 243.645 396 249Z" fill="url(#paint16_linear)"/>
<path d="M403 249C403 257.837 397.404 265 390.5 265C383.596 265 378 257.837 378 249C378 240.163 383.596 233 390.5 233C397.404 233 403 240.163 403 249Z" fill="#007D50"/>
<path d="M434.188 667.756C424.916 718.236 415.168 758.48 426.5 861.5C577.5 810.5 648.813 750.896 689 689C688.5 681.5 686.5 673 684.5 668C668.017 670.06 614.473 675.998 559.872 673.937C505.272 675.998 450.671 669.817 434.188 667.756Z" fill="#139D6C"/>
<path d="M684.462 667.24C686.46 673.023 688.5 680.5 689 689C590.289 673.23 491.713 682.427 456.083 729.738C420.454 777.049 441.102 798.418 426.5 861.5C420.5 787.5 419.87 753.101 434.472 667.24C507.483 667.24 636.567 671.329 684.462 667.24Z" fill="black" fill-opacity="0.1"/>
<path d="M752.702 692.481C754.762 700.723 754.762 708.965 751.671 717.206C747.551 732.659 736.218 751.203 705.312 743.991C703.252 742.961 701.191 740.901 702.222 738.84C702.222 736.78 704.282 735.75 705.312 735.75C716.644 732.659 744.46 722.357 719.735 697.632C719.735 697.632 708.403 704.844 705.312 723.387C705.312 726.478 702.222 728.538 699.131 727.508C697.071 726.478 696.04 724.418 696.04 722.357C696.04 709.995 699.131 674.968 724.886 647.152C724.886 647.152 732.097 594.612 720.765 577.099C720.765 577.099 708.403 545.162 709.433 519.407C709.433 501.894 708.403 484.38 703.252 467.897C724.886 467.897 752.702 458.625 761.973 455.535C763.004 467.897 765.064 480.26 768.155 491.592C775.366 515.286 779.487 560.615 753.732 637.881C753.732 636.85 748.581 669.817 752.702 692.481Z" fill="#FFD05B"/>
<path d="M418.644 721.327C418.644 723.387 416.584 726.478 414.523 726.478C412.463 726.478 409.372 724.418 409.372 722.357C406.282 704.844 394.949 696.602 394.949 696.602C370.224 721.327 399.07 731.629 409.372 734.72C411.433 734.72 412.463 736.78 412.463 738.841C412.463 740.901 410.402 742.961 408.342 742.961C376.406 750.173 365.073 730.599 360.953 715.146C358.892 707.934 358.892 699.693 360.953 691.451C365.073 668.787 360.953 635.82 360.953 635.82C335.198 558.555 339.318 513.226 346.53 489.531C349.62 477.169 352.711 465.837 352.711 453.474C361.983 457.595 389.798 466.867 411.433 465.837C406.282 482.32 404.221 499.833 405.251 517.347C406.282 543.102 393.919 575.038 393.919 575.038C381.557 591.522 389.798 645.092 389.798 645.092C416.584 674.968 418.644 709.995 418.644 721.327Z" fill="#FFD05B"/>
<path d="M710.711 655.559C741.084 653.807 757.438 660.815 757.438 660.815C810.59 503.112 771.456 302.053 710.711 267.008C649.966 231.963 552.423 231.511 552.423 231.511C496.935 231.511 410.358 258.977 387.71 281.158C274.868 391.68 352.689 652.294 359.09 665.488C367.225 659.063 392.383 655.559 401.729 655.559C409.322 608.832 411.074 560.937 428.007 490.846C428.007 490.846 434.443 600.861 428.012 668.993C428.012 668.993 492.91 678.059 558.843 675.998C624.776 678.059 689.678 668.787 689.678 668.787C682.675 621.682 689.678 490.846 689.678 490.846C710.711 557.432 710.711 655.559 710.711 655.559Z" fill="#C4C4C4"/>
<path d="M694.391 431.268C695.33 421.755 695.519 415.822 697.312 406.153C713.666 400.312 746.375 395.639 774.412 404.401C776.863 415.552 777.729 422.279 778.5 433.605C756.889 426.012 732.357 423.675 694.391 431.268Z" fill="white"/>
<path d="M710.711 655.558C741.084 653.806 757.438 660.814 757.438 660.814C782.17 587.434 786.921 504.666 778.812 433.605C764.482 426.011 734.694 426.011 734.694 426.011C734.694 426.011 711.33 426.011 694.391 431.268C692.055 455.216 692.055 472.738 689.678 490.845C710.711 557.431 710.711 655.558 710.711 655.558Z" fill="#139D6C"/>
<path d="M428.007 490.846C428.007 490.846 428.591 452.88 425.092 427.764C401.734 407.321 367.267 408.489 329.843 416.082C316.413 530.009 354.683 656.402 359.09 665.488C367.225 659.063 392.383 655.559 401.729 655.559C409.322 608.832 425.092 558.6 428.007 490.846Z" fill="#139D6C"/>
<path d="M560.007 274C560.007 274 520.298 259.5 503.798 287.5C506.007 294 511.507 302 519.007 308C531.007 290 543.656 290.115 550.507 293C560.007 297 576.796 305.235 578.429 323C579.777 337.657 576.007 641.642 576.007 676C577.507 676 579.007 676 580.507 676C580.945 674.271 581.456 353.957 584.272 323C584.272 303 578.429 298.5 570.507 287.5C575.196 276.5 592.007 289 602.007 300.5C628.507 265.5 560.007 274 560.007 274Z" fill="black" fill-opacity="0.1"/>
<path d="M558.842 278.822C524.387 263.051 505.112 234.431 519.714 212.236C520.066 202.982 518.511 193.708 513.289 181.279C524.622 194.672 544.419 208.147 558.842 208.147C573.265 208.147 594.243 192.919 605.575 179.527C598.566 199.97 596.23 201.722 598.566 212.236C614.337 237.351 592.141 263.635 558.842 278.822Z" fill="#FFD05B"/>
<path d="M597.982 212.235C597.982 212.235 617.841 232.2 558.842 279.316C558.842 279.316 591.948 266.638 616.673 300.175C622.514 288.291 645.371 224.811 597.982 212.235Z" fill="#139D6C"/>
<path d="M519.714 212.235C466.858 227.689 498.687 301.601 498.687 301.601C523.412 268.903 558.848 279.259 558.848 279.259C505.112 236.953 519.714 212.235 519.714 212.235Z" fill="#139D6C"/>
<path d="M770.507 613.871C772.007 606 773.007 600.5 774.507 593.5C764.507 587.5 736.507 576.5 707.007 585L708.507 603.871C734.007 599.371 759.507 608.871 770.507 613.871Z" fill="white"/>
<path d="M700.232 381.037C693.807 411.994 691.471 452.88 691.471 496.686C711.33 562.104 709.028 638.62 711.33 655.558C749.88 532.9 700.232 504.864 700.232 381.037Z" fill="black" fill-opacity="0.1"/>
<path d="M605.507 179.5C573.007 180.5 545.007 208 533.007 199.5C560.007 235 568.007 218 559.007 279C581.507 261.5 610.507 233 598.507 212.5C595.507 199.5 603.007 190 605.507 179.5Z" fill="black" fill-opacity="0.1"/>
<path d="M347.507 625.5C345.507 617.5 344.507 613.5 343.007 606.5C353.007 600.5 384.007 588 413.507 596.5L409.507 615.5C384.007 611 358.507 620.5 347.507 625.5Z" fill="white"/>
<path d="M394.507 599.5C400.095 585.037 411.007 566.5 420.007 563C416.007 590 406.507 629 402.007 655.5C392.007 656 388.007 656.5 376.507 659C379.507 646 386.007 621.5 394.507 599.5Z" fill="black" fill-opacity="0.1"/>
<path d="M388.294 282.91C476.492 298.096 529.644 466.314 522.051 677.17C475.908 674.833 428.012 668.992 428.012 668.992C428.012 668.992 434.485 594.229 428.012 491.43C426.303 464.274 428.012 341.319 388.294 282.91Z" fill="#139D6C"/>
<path d="M422.756 402.064C433.853 434.189 453.712 496.102 443.199 670.744C436.19 670.16 428.012 668.992 428.012 668.992C428.012 668.992 433.888 581.963 428.012 491.429C427.428 472.154 425.092 420.755 422.756 402.064Z" fill="black" fill-opacity="0.1"/>
<path d="M610.352 172.229C616.534 173.259 621.416 161.087 626.567 151.815C632.748 141.513 633.007 130.439 627.597 125.03C626.567 124 625.037 124 624.007 124C621.007 50.9998 501.507 35.9999 495.507 122.5C493.446 122.5 491.449 119.68 486.728 124C482.007 128.32 482.325 144.198 488.507 154.5C494.688 163.772 501.151 173.259 507.332 172.229C519.694 194.893 538.238 212.407 558.842 212.407C579.446 212.407 597.99 194.893 610.352 172.229Z" fill="#FFD05B"/>
<path d="M624.007 103C591.507 104 511.507 111.5 499.507 103C497.007 109 499.507 114 499.507 124.5C523.507 115.5 594.507 117.5 617.007 126C614.007 113 621.507 113.5 624.007 103Z" fill="black" fill-opacity="0.1"/>
<path d="M630.956 88.1143C630.956 88.1143 627.007 28.9998 561.007 26.9999C495.007 25 488.789 80.9029 488.789 80.9029C480.547 111.809 501.151 136.534 501.151 136.534C494.97 103.567 519.695 99.4465 515.574 67.5102C515.574 67.5102 531.027 101.507 575.326 77.8123L572.235 83.9935C634.047 69.5706 612.413 144.775 612.413 144.775C634.047 116.96 630.956 88.1143 630.956 88.1143Z" fill="black"/>
<path d="M329.886 416.083C330.824 406.569 331.597 401.22 333.39 391.551C357.338 386.878 390.631 381.621 422.756 402.064L425.092 427.764C403.481 409.658 367.851 408.489 329.886 416.083Z" fill="white"/>
<path d="M422.756 402.064C421.587 391.55 420.419 384.541 419.251 376.364C428.597 371.107 453.712 364.682 475.324 366.434C479.123 375.05 481.167 379.927 484.669 388.63C458.385 387.462 436.19 395.055 422.756 402.064Z" fill="white"/>
<path d="M732.357 289.335C641.949 304.274 587.465 469.75 595.249 677.17C642.548 674.871 691.644 669.126 691.644 669.126C691.644 669.126 685.009 595.581 691.644 494.456C693.396 467.743 691.644 346.792 732.357 289.335Z" fill="#139D6C"/>
<path d="M697.249 406.153C698.438 395.896 699.627 389.059 700.816 381.081C691.304 375.953 665.573 369.398 643.576 371.107C639.487 378.701 636.567 385.71 633.646 393.303C660.4 392.163 683.575 399.315 697.249 406.153Z" fill="white"/>
<path fill-rule="evenodd" clip-rule="evenodd" d="M484.716 327.675C486.406 331.661 483.77 334.355 481.167 336.718C478.894 339.391 476.932 342.08 480.907 347.061C479.235 343.057 481.853 340.363 484.456 338.018C486.746 335.326 488.691 332.638 484.716 327.675ZM548.547 350.852L552.188 350.822L552.163 347.818L556.115 347.785L556.101 346.108L552.149 346.141L552.136 344.464L559.71 344.402L559.763 350.724L563.403 350.694L563.351 344.371L566.647 344.344L566.633 342.667L548.481 342.817L548.547 350.852ZM513.868 343.12L513.882 344.797L516.85 344.773L516.902 351.113L520.543 351.083L520.491 344.743L523.458 344.718L523.444 343.041L513.868 343.12ZM532.969 342.963L533.002 346.963L527.379 343.009L524.739 343.031L524.805 351.048L527.117 351.029L527.078 346.348L533.053 350.98L535.692 350.958L535.626 342.941L532.969 342.963ZM506.897 343.178L502.667 351.231L504.996 351.211L505.641 349.861L510.593 349.82L511.277 351.16L515.228 351.127L510.883 343.145L506.897 343.178ZM508.09 345.474L509.613 348.169L506.628 348.193L508.09 345.474ZM503.636 343.205L498.684 343.246L493.732 343.287L493.746 344.963L496.696 344.939L496.749 351.279L500.389 351.249L500.337 344.909L503.65 344.882L503.636 343.205ZM540.941 349.22L540.93 347.893L545.555 347.855L545.541 346.178L540.916 346.216L540.905 344.871L546.841 344.822L546.827 343.145L537.268 343.224L537.334 351.241L546.893 351.163L546.879 349.486L540.944 349.535L540.941 349.185L540.941 349.22Z" fill="#00B473"/>
<path fill-rule="evenodd" clip-rule="evenodd" d="M488.424 332.978C490.026 336.839 487.559 339.117 485.078 341.699C482.908 344.294 481.065 346.887 484.833 351.675C483.248 347.813 485.728 345.215 488.195 342.953C490.349 340.358 492.192 337.765 488.407 332.978L488.424 332.978Z" fill="#E51A4B"/>
<path d="M499.465 32.1485C482.847 48.876 479.039 83.0283 485.444 100.627C526.988 116.309 603.845 115.264 634.484 100.627C639.677 83.8995 635.004 44.694 618.905 29.5346C610.008 21.1566 598.674 15.0707 586.28 11.5407C584.111 1.82958 583.073 0.311018 561.262 0.0248022C539.451 -0.261414 537.893 1.82958 534.777 11.5407C521.731 15.2969 509.474 22.073 499.465 32.1485Z" fill="#FFF85B"/>
<path d="M560.083 97.6035C533.466 97.6265 508.232 92.7336 491.507 99.9298C529.973 113.816 601.137 112.89 629.507 99.9298C609.62 93.1763 587.392 97.5798 560.083 97.6035Z" fill="#FFDA5B"/>
<path d="M546.507 89C535.209 55.2313 535.723 26.9048 534.696 13C527.507 14.9864 515.696 19.8209 508.507 26.4422C518.263 27.4762 528.02 70.9048 531.615 78.4059C532.975 81.2449 538.29 89 546.507 89Z" fill="#FFD05B" fill-opacity="0.5"/>
<path d="M575.507 89C586.804 55.2313 586.29 26.9048 587.317 13C594.507 14.9864 606.317 19.8209 613.507 26.4422C603.75 27.4762 593.993 70.9048 590.399 78.4059C589.038 81.2449 583.723 89 575.507 89Z" fill="#FFD05B" fill-opacity="0.5"/>
<path d="M537 170C552.42 175.789 560.984 176.564 576 170C569.415 181.34 540.545 177.088 537 170Z" fill="#E5BB52"/>
<path d="M564.729 153.528C561.229 157.028 553.229 156.528 550.729 154.028C549.413 152.712 550.063 151.828 551.229 152.028C552.395 152.229 562.229 152.028 563.729 152.028C564.729 152.028 565.227 153.031 564.729 153.528Z" fill="#E5BB52"/>
<circle cx="531.725" cy="123.413" r="5.56606" fill="#6F3A2C"/>
<circle cx="533.739" cy="121.932" r="1.66608" fill="white"/>
<path d="M520.446 118.404C532.491 112.219 543.005 118.404 543.005 118.404C543.005 118.404 533.11 115.311 520.446 118.404Z" fill="black"/>
<circle r="5.56606" transform="matrix(-1 0 0 1 581.421 123.413)" fill="#6F3A2C"/>
<circle r="1.66608" transform="matrix(-1 0 0 1 583.407 121.932)" fill="white"/>
<path d="M592.7 118.404C580.655 112.219 570.141 118.404 570.141 118.404C570.141 118.404 580.036 115.311 592.7 118.404Z" fill="black"/>
<defs>
<linearGradient id="paint0_linear" x1="258.5" y1="284" x2="442.941" y2="853.399" gradientUnits="userSpaceOnUse">
<stop stop-color="#61E3FF"/>
<stop offset="1" stop-color="#00C164"/>
</linearGradient>
<linearGradient id="paint1_linear" x1="520" y1="463.5" x2="291" y2="585" gradientUnits="userSpaceOnUse">
<stop stop-color="#AEC0CD"/>
<stop offset="1" stop-color="#738B9C"/>
</linearGradient>
<linearGradient id="paint2_linear" x1="319" y1="577" x2="269" y2="708" gradientUnits="userSpaceOnUse">
<stop stop-color="#738B9C"/>
<stop offset="0.0001" stop-color="#95A5B4"/>
<stop offset="1" stop-color="#344351"/>
</linearGradient>
<linearGradient id="paint3_linear" x1="531.25" y1="487.5" x2="531.25" y2="734" gradientUnits="userSpaceOnUse">
<stop stop-color="#8999A8"/>
<stop offset="1" stop-color="#526270"/>
</linearGradient>
<linearGradient id="paint4_linear" x1="358.5" y1="233" x2="358.5" y2="265" gradientUnits="userSpaceOnUse">
<stop stop-color="#00B473"/>
<stop offset="1" stop-color="#007D50"/>
</linearGradient>
<linearGradient id="paint5_linear" x1="358.25" y1="167" x2="358.25" y2="260.5" gradientUnits="userSpaceOnUse">
<stop stop-color="#C4C4C4"/>
<stop offset="1" stop-color="#686868"/>
</linearGradient>
<linearGradient id="paint6_linear" x1="517.5" y1="217" x2="203" y2="133.5" gradientUnits="userSpaceOnUse">
<stop stop-color="#DEDEDE"/>
<stop offset="1" stop-color="#B6B6B6"/>
</linearGradient>
<linearGradient id="paint7_linear" x1="14" y1="199.5" x2="179.5" y2="204" gradientUnits="userSpaceOnUse">
<stop stop-color="#CF3A09"/>
<stop offset="1" stop-color="#CD3C08"/>
</linearGradient>
<linearGradient id="paint8_linear" x1="18.0346" y1="217" x2="220.125" y2="229.449" gradientUnits="userSpaceOnUse">
<stop stop-color="#AF2F08"/>
<stop offset="1" stop-color="#AF2F08"/>
</linearGradient>
<linearGradient id="paint9_linear" x1="81.1346" y1="729.429" x2="42" y2="729.429" gradientUnits="userSpaceOnUse">
<stop stop-color="#592512"/>
<stop offset="1" stop-color="#E35C2E"/>
</linearGradient>
<linearGradient id="paint10_linear" x1="74.5" y1="699" x2="47" y2="699" gradientUnits="userSpaceOnUse">
<stop stop-color="#592512"/>
<stop offset="1" stop-color="#E35C2E"/>
</linearGradient>
<linearGradient id="paint11_linear" x1="32" y1="199.5" x2="197.5" y2="204" gradientUnits="userSpaceOnUse">
<stop stop-color="#AB0F01"/>
<stop offset="1" stop-color="#C02705"/>
</linearGradient>
<linearGradient id="paint12_linear" x1="36.0346" y1="217" x2="238.125" y2="229.449" gradientUnits="userSpaceOnUse">
<stop stop-color="#F41C0D"/>
<stop offset="1" stop-color="#F9562B"/>
</linearGradient>
<linearGradient id="paint13_linear" x1="339.25" y1="277" x2="339.25" y2="587" gradientUnits="userSpaceOnUse">
<stop stop-color="#00B473"/>
<stop offset="1" stop-color="#007D50"/>
</linearGradient>
<linearGradient id="paint14_linear" x1="404.5" y1="271" x2="299" y2="271" gradientUnits="userSpaceOnUse">
<stop stop-color="#007D50"/>
<stop offset="1" stop-color="#00B272"/>
</linearGradient>
<linearGradient id="paint15_linear" x1="373" y1="273" x2="421" y2="273" gradientUnits="userSpaceOnUse">
<stop stop-color="#00B473"/>
<stop offset="1" stop-color="#007D50"/>
</linearGradient>
<linearGradient id="paint16_linear" x1="383.5" y1="233" x2="383.5" y2="265" gradientUnits="userSpaceOnUse">
<stop stop-color="#00B473"/>
<stop offset="1" stop-color="#007D50"/>
</linearGradient>
</defs>
</svg>
