<?xml version="1.0" encoding="UTF-8"?>
<!DOCTYPE svg PUBLIC "-//W3C//DTD SVG 1.1//EN" "http://www.w3.org/Graphics/SVG/1.1/DTD/svg11.dtd">
<!-- Creator: CorelDRAW 2017 -->
<svg xmlns="http://www.w3.org/2000/svg" xml:space="preserve" width="750px" height="611px" version="1.1" style="shape-rendering:geometricPrecision; text-rendering:geometricPrecision; image-rendering:optimizeQuality; fill-rule:evenodd; clip-rule:evenodd"
viewBox="0 0 2096 1708"
 xmlns:xlink="http://www.w3.org/1999/xlink">
 <defs>
  <style type="text/css">
   <![CDATA[
    .fil0 {fill:#FEFEFE;fill-opacity:0.200000}
   ]]>
  </style>
 </defs>
 <g id="Слой_x0020_1">
  <metadata id="CorelCorpID_0Corel-Layer"/>
  <g id="_479766152">
   <path class="fil0" d="M28 401l836 -362c120,-52 246,-53 368,0l836 362c19,8 28,24 28,40 0,16 -9,32 -28,40l-836 362c-122,53 -248,52 -368,0l-836 -362c-18,-8 -28,-24 -28,-40 0,-16 10,-32 28,-40z"/>
   <path class="fil0" d="M0 441l864 369c120,51 246,52 368,0l864 -369 0 419c0,16 -9,32 -28,40l-836 362c-122,53 -248,52 -368,0l-836 -362c-18,-8 -28,-24 -28,-40l0 -419z"/>
  </g>
  <g id="_479766656">
   <path class="fil0" d="M459 1187l483 -209c69,-30 142,-31 213,0l483 209c11,5 16,14 16,23 0,9 -5,18 -16,23l-483 209c-70,30 -143,30 -213,0l-483 -209c-11,-5 -16,-14 -16,-23 0,-9 6,-19 16,-23z"/>
   <path class="fil0" d="M443 1211l499 213c70,30 142,30 213,0l499 -213 0 242c0,9 -5,18 -16,23l-483 209c-70,31 -143,30 -213,0l-483 -209c-11,-5 -16,-14 -16,-23l0 -242z"/>
  </g>
 </g>
</svg>
